# xmcd CD database file
#
# Track frame offsets:
#	150
#	17931
#	36882
#	55088
#	78855
#	98180
#	117121
#	141261
#	159171
#	175290
#	192928
#
# Disc length: 2768 seconds
#
# Revision: 0
# Processed by: cddbd v1.5.1PL0 Copyright (c) Steve Scherf et al.
# Submitted via: cdripper 1,0,15,908
#
DISCID=870ace0b
DTITLE=Gabe Lee - Haunted Hollowbody
DYEAR=2004
DGENRE=Jazz
TTITLE0=Can't Stop The Train
TTITLE1=Hey Mr. Driver
TTITLE2=Bring The Boss Down
TTITLE3=Sea Of Love
TTITLE4=Waiting At The Station
TTITLE5=Rock You All Over
TTITLE6=Pretty Baby
TTITLE7=Bonita Mala
TTITLE8=Double Entendre
TTITLE9=The Wind In New Orleans
TTITLE10=Step On A Crack
EXTD=YEAR: 2004
EXTT0=
EXTT1=
EXTT2=
EXTT3=
EXTT4=
EXTT5=
EXTT6=
EXTT7=
EXTT8=
EXTT9=
EXTT10=
PLAYORDER=
